<svg width="120" height="22" viewBox="0 0 120 22" fill="none" xmlns="http://www.w3.org/2000/svg">
<g id="Group 1">
<path id="Vector" d="M13.2609 2.20801H13.7626L11.2381 7.62085L10.9872 7.0641L13.2609 2.20801ZM8.54105 17.3021L8.27448 16.7299L11.2381 10.3273L11.5047 10.915L8.54105 17.3021ZM0.591051 0.98626H0.559689C0.481287 0.98626 0.402885 1.01719 0.340163 1.04812C0.0422337 1.20277 -0.0832093 1.51208 0.0579149 1.79045L6.23602 15.0596C6.34578 15.2607 6.53395 15.3844 6.76916 15.3844C6.973 15.3844 7.17685 15.2607 7.27093 15.0442L10.36 8.42505L10.6266 8.98179L7.14549 16.467C7.05141 16.6216 7.05141 16.8227 7.14549 16.9773L8.02359 18.8796C8.11768 19.0651 8.32152 19.1889 8.55673 19.1889C8.77626 19.1889 8.96442 19.0651 9.05851 18.8796L12.1476 12.2604L12.4141 12.8172L8.9801 20.225C8.91738 20.3642 8.9017 20.5189 8.94874 20.6581C8.99578 20.7972 9.08986 20.9055 9.23099 20.9828C9.34075 21.0292 9.41916 21.0292 9.48188 21.0292C9.71708 21.0292 9.90525 20.9055 9.98365 20.689L13.01 14.1317L13.402 14.9668C13.5118 15.1679 13.6999 15.2916 13.9351 15.2916C14.139 15.2916 14.3428 15.1679 14.4369 14.9514L20.4268 2.11522H20.9286L14.2958 16.3742C14.2017 16.5288 14.2017 16.7299 14.2958 16.8845L15.1739 18.7868C15.268 18.9723 15.4718 19.0961 15.707 19.0961C15.9266 19.0961 16.1147 18.9723 16.2088 18.7868L23.9863 2.11522H24.4881L16.0677 20.2096C15.9266 20.5034 16.0206 20.8127 16.3186 20.9519C16.4283 20.9983 16.5067 20.9983 16.5695 20.9983C16.8047 20.9983 16.9928 20.8746 17.0712 20.6581L25.8837 1.75952L25.8993 1.72859C25.9464 1.5894 25.9464 1.37289 25.8366 1.21824C25.7268 1.06359 25.5387 0.970795 25.3505 0.970795H23.5943C23.3905 0.970795 23.1866 1.09452 23.0925 1.31103L15.707 17.2248L15.4405 16.6526L22.3242 1.82138C22.4339 1.6358 22.3712 1.40382 22.2771 1.26463C22.1674 1.10998 22.0106 1.01719 21.8224 1.01719H20.0662C19.8467 1.01719 19.6428 1.14091 19.5331 1.35743L13.9195 13.4049L13.6372 12.7862L18.7177 1.88324L18.7334 1.85231C18.7804 1.71313 18.7804 1.49661 18.6706 1.34196C18.5766 1.18731 18.3727 1.01719 18.1845 1.01719H16.4283C16.2245 1.01719 16.0206 1.2337 15.9266 1.43475L12.1319 9.56947L11.8653 8.98179L15.1582 1.89871C15.268 1.71313 15.2052 1.48115 15.1112 1.34196C15.0014 1.18731 14.8446 1.01719 14.6564 1.01719H12.9002C12.6807 1.01719 12.4768 1.21824 12.3671 1.43475L10.36 5.74956L8.30584 1.35743C8.19608 1.15638 7.99223 1.01719 7.78839 1.01719C7.6943 1.01719 7.6159 1.03266 7.55318 1.07905C7.25525 1.2337 7.12981 1.54301 7.27093 1.82138L9.73277 7.1105L6.75348 13.4976L1.09283 1.3265C0.983062 1.12545 0.794897 1.00172 0.591051 0.98626ZM13.0257 11.4562L12.7591 10.8995L16.8203 2.20801H17.3221L13.0257 11.4562Z" fill="#981D87"/>
<path id="Vector_2" fill-rule="evenodd" clip-rule="evenodd" d="M113.877 6.15997C113.877 5.62129 113.436 5.20505 112.922 5.20505C112.383 5.20505 111.966 5.64578 111.966 6.15997V15.7092C111.966 16.2479 112.407 16.6641 112.922 16.6641C113.46 16.6641 113.877 16.2234 113.877 15.7092V12.5261L114.832 11.5222L118.261 16.2723C118.384 16.4437 118.653 16.6886 119.045 16.6886C119.559 16.6886 120 16.2479 120 15.7337C120 15.5378 119.927 15.3419 119.829 15.195L116.155 10.1755L119.29 6.7721C119.437 6.6007 119.535 6.40482 119.535 6.13548C119.535 5.62129 119.118 5.20505 118.604 5.20505C118.359 5.20505 118.114 5.30299 117.894 5.52335L113.901 9.97965V6.15997H113.877ZM109.076 5.20505C108.562 5.20505 108.121 5.64578 108.121 6.15997V12.7465L103.198 5.59681C103.026 5.35196 102.757 5.20505 102.439 5.20505C101.924 5.20505 101.483 5.64578 101.483 6.15997V15.7337C101.483 16.2479 101.924 16.6886 102.439 16.6886C102.953 16.6886 103.394 16.2479 103.394 15.7337V9.17164L108.317 16.2723C108.488 16.5172 108.782 16.6886 109.101 16.6886C109.615 16.6886 110.056 16.2479 110.056 15.7337V6.15997C110.031 5.64578 109.615 5.20505 109.076 5.20505ZM97.3929 13.6279L98.3971 16.052C98.5441 16.3948 98.8625 16.6886 99.3034 16.6886C99.8177 16.6886 100.259 16.2479 100.259 15.7337C100.259 15.6357 100.234 15.4888 100.185 15.3909L96.2662 5.81718C96.1683 5.57233 95.8988 5.22953 95.3845 5.22953C94.8701 5.22953 94.6007 5.59681 94.5027 5.81718L90.5838 15.3909C90.5348 15.5133 90.5103 15.6357 90.5103 15.7337C90.5103 16.2479 90.9512 16.6886 91.4656 16.6886C91.9064 16.6886 92.2248 16.3948 92.3718 16.052L93.376 13.6279H97.3929ZM96.7561 11.865H94.0129L95.3845 8.36363L96.7561 11.865ZM86.1505 16.5417C88.5509 16.5417 89.7755 15.2195 89.7755 13.1872C89.7755 11.8895 89.2857 10.9835 88.0365 10.5183C88.7223 10.1755 89.2612 9.34304 89.2612 8.26569C89.2612 6.72313 88.3549 5.37644 85.8566 5.37644H82.8684C82.3296 5.37644 81.9132 5.81717 81.9132 6.33136V15.6112C81.9132 16.1499 82.3541 16.5662 82.8684 16.5662H86.1505V16.5417ZM83.8237 11.5467H86.1505C87.2527 11.5467 87.7916 12.1588 87.7916 13.1872C87.7916 14.1911 87.3262 14.8277 86.1505 14.8277H83.8237V11.5467ZM83.8237 7.06592H85.8566C86.9098 7.06592 87.3507 7.60459 87.3507 8.48606C87.3507 9.31855 86.9098 9.9062 85.8566 9.9062H83.8237V7.06592ZM73.9529 13.6279L74.9571 16.052C75.1041 16.3948 75.4225 16.6886 75.8634 16.6886C76.3777 16.6886 76.8186 16.2479 76.8186 15.7337C76.8186 15.6357 76.7941 15.4888 76.7451 15.3909L72.8262 5.81718C72.7282 5.57233 72.4588 5.22953 71.9445 5.22953C71.4301 5.22953 71.1607 5.59681 71.0627 5.81718L67.1438 15.3909C67.0948 15.5133 67.0703 15.6357 67.0703 15.7337C67.0703 16.2479 67.5112 16.6886 68.0255 16.6886C68.4664 16.6886 68.7848 16.3948 68.9318 16.052L69.936 13.6279H73.9529ZM73.2916 11.865H70.5728L71.9445 8.36363L73.2916 11.865ZM60.4081 14.7787C60.751 14.7787 61.0695 14.6073 61.2164 14.3135L63.8372 9.66135V15.7337C63.8372 16.2479 64.2781 16.6886 64.7924 16.6886C65.3068 16.6886 65.7477 16.2479 65.7477 15.7337V6.15997C65.7477 5.64578 65.3068 5.20505 64.7924 5.20505C64.376 5.20505 64.1066 5.4499 63.9352 5.74372L60.4081 12.0609L56.8811 5.74372C56.7097 5.4499 56.4402 5.20505 56.0239 5.20505C55.5095 5.20505 55.0686 5.64578 55.0686 6.15997V15.7337C55.0686 16.2479 55.5095 16.6886 56.0239 16.6886C56.5382 16.6886 56.9791 16.2479 56.9791 15.7337V9.66135L59.5999 14.3135C59.7468 14.6073 60.0652 14.7787 60.4081 14.7787ZM48.382 7.06592H52.6193C53.1092 7.06592 53.4766 6.67415 53.4766 6.20894C53.4766 5.71923 53.0847 5.35196 52.6193 5.35196H47.4022C46.8634 5.35196 46.447 5.79269 46.447 6.30688V15.5868C46.447 16.1254 46.8879 16.5417 47.4022 16.5417H52.7907C53.2806 16.5417 53.648 16.1499 53.648 15.6847C53.648 15.195 53.2561 14.8277 52.7907 14.8277H48.382V11.7671H51.5416C52.007 11.7671 52.3989 11.3753 52.3989 10.9101C52.3989 10.4449 52.007 10.0531 51.5416 10.0531H48.382V7.06592ZM40.3727 15.954C40.4951 16.3703 40.8625 16.6641 41.3034 16.6641C41.7443 16.6641 42.1117 16.3703 42.2097 16.003L45.0509 6.45379C45.0754 6.35585 45.0999 6.28239 45.0999 6.15997C45.0999 5.62129 44.659 5.20505 44.1446 5.20505C43.6058 5.20505 43.3119 5.59681 43.2384 5.86615L41.2789 12.8689L39.393 5.91512C39.2705 5.47438 38.8786 5.20505 38.4622 5.20505C38.0458 5.20505 37.6539 5.47438 37.5315 5.91512L35.621 12.8689L33.6615 5.86615C33.5881 5.57232 33.2696 5.20505 32.7553 5.20505C32.2164 5.20505 31.8 5.64578 31.8 6.15997C31.8 6.28239 31.8245 6.35585 31.849 6.45379L34.6902 16.003C34.8127 16.3948 35.1801 16.6641 35.5965 16.6641C36.0374 16.6641 36.4048 16.3703 36.5272 15.954L38.4377 9.12267L40.3727 15.954Z" fill="#981D87"/>
</g>
</svg>
